<svg xmlns="http://www.w3.org/2000/svg" width="20.018" height="31.136" viewBox="0 0 20.018 31.136">
  <g id="Group_21461" data-name="Group 21461" transform="translate(-1236.119 -1458.929)">
    <path id="Path_19325" data-name="Path 19325" d="M615.94,31.135c-1.077,0-2.154,0-3.231,0a3.335,3.335,0,0,1-3.44-3.439q-.006-2.189,0-4.378a.629.629,0,0,0-.211-.512,9.934,9.934,0,0,1,.011-14.486.593.593,0,0,0,.2-.481c-.008-1.459-.006-2.919,0-4.378A3.335,3.335,0,0,1,612.725,0q3.214,0,6.428,0a3.333,3.333,0,0,1,3.459,3.455q.005,2.189,0,4.378a.593.593,0,0,0,.2.481,9.938,9.938,0,0,1-.012,14.514.56.56,0,0,0-.185.453q.009,2.189,0,4.378a3.336,3.336,0,0,1-3.475,3.475q-1.6,0-3.2,0m0-7.784a7.783,7.783,0,1,0-7.785-7.835,7.8,7.8,0,0,0,7.785,7.835m4.446,1.18a10,10,0,0,1-8.893,0c0,1.14-.016,2.249.006,3.357a1.072,1.072,0,0,0,1.078,1.019q3.352.013,6.7,0a1.091,1.091,0,0,0,1.1-1.107c.01-1.076,0-2.153,0-3.27M611.5,6.6a10.007,10.007,0,0,1,8.893,0c0-1.116.007-2.192,0-3.269a1.076,1.076,0,0,0-1.035-1.1q-3.4-.022-6.807,0A1.055,1.055,0,0,0,611.5,3.248c-.021,1.108-.006,2.216-.006,3.356" transform="translate(630.188 1458.929)" fill="#fff"/>
    <path id="Path_19326" data-name="Path 19326" d="M667.038,72.084c0-.718,0-1.436,0-2.154a1.112,1.112,0,1,1,2.222,0c.005.984.01,1.969,0,2.953,0,.249.045.342.318.332.613-.023,1.227-.01,1.841-.006a1.114,1.114,0,1,1-.015,2.222q-1.581.005-3.162,0a1.113,1.113,0,0,1-1.2-1.188c0-.718,0-1.436,0-2.154" transform="translate(577.978 1400.181)" fill="#f0af18"/>
  </g>
</svg>
